<mxfile host="Electron" modified="2023-08-20T06:20:28.289Z" agent="Mozilla/5.0 (Windows NT 10.0; Win64; x64) AppleWebKit/537.36 (KHTML, like Gecko) draw.io/21.6.8 Chrome/114.0.5735.289 Electron/25.5.0 Safari/537.36" etag="UtqQuXM-gGjLUcztEZdS" version="21.6.8" type="device">
  <diagram name="第 1 页" id="XYRqnl-FVgXcqSTGZ9Kc">
    <mxGraphModel dx="727" dy="835" grid="1" gridSize="10" guides="1" tooltips="1" connect="1" arrows="1" fold="1" page="1" pageScale="1" pageWidth="827" pageHeight="1169" math="0" shadow="0">
      <root>
        <mxCell id="0" />
        <mxCell id="1" parent="0" />
        <mxCell id="-ezCe4l7YuMUzIKciG_e-2" value="Pool" style="swimlane;childLayout=stackLayout;resizeParent=1;resizeParentMax=0;startSize=20;horizontal=0;horizontalStack=1;" vertex="1" parent="1">
          <mxGeometry x="40" y="190" width="620" height="480" as="geometry" />
        </mxCell>
        <mxCell id="-ezCe4l7YuMUzIKciG_e-3" value="Client" style="swimlane;startSize=20;" vertex="1" parent="-ezCe4l7YuMUzIKciG_e-2">
          <mxGeometry x="20" width="200" height="480" as="geometry" />
        </mxCell>
        <mxCell id="-ezCe4l7YuMUzIKciG_e-6" value="JobSubmiter" style="rounded=1;whiteSpace=wrap;html=1;" vertex="1" parent="-ezCe4l7YuMUzIKciG_e-3">
          <mxGeometry x="70" y="90" width="90" height="30" as="geometry" />
        </mxCell>
        <mxCell id="-ezCe4l7YuMUzIKciG_e-12" value="TaskSubmiter" style="rounded=1;whiteSpace=wrap;html=1;" vertex="1" parent="-ezCe4l7YuMUzIKciG_e-3">
          <mxGeometry x="70" y="140" width="90" height="30" as="geometry" />
        </mxCell>
        <mxCell id="-ezCe4l7YuMUzIKciG_e-4" value="Master" style="swimlane;startSize=20;" vertex="1" parent="-ezCe4l7YuMUzIKciG_e-2">
          <mxGeometry x="220" width="200" height="480" as="geometry" />
        </mxCell>
        <mxCell id="-ezCe4l7YuMUzIKciG_e-15" value="ResourceManager" style="rounded=1;whiteSpace=wrap;html=1;" vertex="1" parent="-ezCe4l7YuMUzIKciG_e-4">
          <mxGeometry x="50" y="50" width="120" height="30" as="geometry" />
        </mxCell>
        <mxCell id="-ezCe4l7YuMUzIKciG_e-16" value="TaskManager" style="rounded=1;whiteSpace=wrap;html=1;" vertex="1" parent="-ezCe4l7YuMUzIKciG_e-4">
          <mxGeometry x="50" y="100" width="120" height="30" as="geometry" />
        </mxCell>
        <mxCell id="-ezCe4l7YuMUzIKciG_e-17" value="WorkerStatusCollector" style="rounded=1;whiteSpace=wrap;html=1;" vertex="1" parent="-ezCe4l7YuMUzIKciG_e-4">
          <mxGeometry x="50" y="160" width="120" height="30" as="geometry" />
        </mxCell>
        <mxCell id="-ezCe4l7YuMUzIKciG_e-5" value="Worker" style="swimlane;startSize=20;" vertex="1" parent="-ezCe4l7YuMUzIKciG_e-2">
          <mxGeometry x="420" width="200" height="480" as="geometry" />
        </mxCell>
        <mxCell id="-ezCe4l7YuMUzIKciG_e-18" value="MapExecutor" style="rounded=1;whiteSpace=wrap;html=1;" vertex="1" parent="-ezCe4l7YuMUzIKciG_e-5">
          <mxGeometry x="40" y="50" width="120" height="30" as="geometry" />
        </mxCell>
        <mxCell id="-ezCe4l7YuMUzIKciG_e-19" value="ReduceExecutor" style="rounded=1;whiteSpace=wrap;html=1;" vertex="1" parent="-ezCe4l7YuMUzIKciG_e-5">
          <mxGeometry x="40" y="100" width="120" height="30" as="geometry" />
        </mxCell>
        <mxCell id="-ezCe4l7YuMUzIKciG_e-20" value="MapReder" style="rounded=1;whiteSpace=wrap;html=1;" vertex="1" parent="-ezCe4l7YuMUzIKciG_e-5">
          <mxGeometry x="40" y="150" width="120" height="30" as="geometry" />
        </mxCell>
        <mxCell id="-ezCe4l7YuMUzIKciG_e-21" value="ReduceReader" style="rounded=1;whiteSpace=wrap;html=1;" vertex="1" parent="-ezCe4l7YuMUzIKciG_e-5">
          <mxGeometry x="40" y="200" width="120" height="30" as="geometry" />
        </mxCell>
        <mxCell id="-ezCe4l7YuMUzIKciG_e-22" value="MapWriter" style="rounded=1;whiteSpace=wrap;html=1;" vertex="1" parent="-ezCe4l7YuMUzIKciG_e-5">
          <mxGeometry x="40" y="250" width="120" height="30" as="geometry" />
        </mxCell>
        <mxCell id="-ezCe4l7YuMUzIKciG_e-23" value="ReduceWriter" style="rounded=1;whiteSpace=wrap;html=1;" vertex="1" parent="-ezCe4l7YuMUzIKciG_e-5">
          <mxGeometry x="40" y="300" width="120" height="30" as="geometry" />
        </mxCell>
        <mxCell id="-ezCe4l7YuMUzIKciG_e-24" value="WorkerStatusManager" style="rounded=1;whiteSpace=wrap;html=1;" vertex="1" parent="-ezCe4l7YuMUzIKciG_e-5">
          <mxGeometry x="40" y="350" width="120" height="30" as="geometry" />
        </mxCell>
      </root>
    </mxGraphModel>
  </diagram>
</mxfile>
